# xmcd CD database file
# Copyright (C) 1995 Ti Kan
#
# Track frame offsets:
#	150
#	17409
#	31454
#	50015
#	63803
#	77067
#	92675
#	105812
#	121557
#	130495
#	147054
#	164158
#
# Disc length: 2378 seconds
#
# Revision: 1
# Processed by: cddbd v1.4PL0 Copyright (c) Steve Scherf et al.
# Submitted via: NotifyCDPlayer(CDDB) 1.60beta5_freedb
#
DISCID=9109480c
DTITLE=Eleven Hundred Springs - Welcome To... Eleven Hundred Springs
DYEAR=1900
DGENRE=
TTITLE0=The Only Thing She Left Me (Was The Blues)
TTITLE1=Thing For You
TTITLE2=Miles
TTITLE3=Gone Crazy Blues
TTITLE4=Center Ridge Breakdown
TTITLE5=Anywhere I'm Loving You
TTITLE6=This one Wish
TTITLE7=A Few Words To Remember Me By
TTITLE8=Springtime in Texas
TTITLE9=One More Chance
TTITLE10=Queen of Canton Street
TTITLE11=Raise Hell, Drink Beer
EXTD=
EXTT0=
EXTT1=
EXTT2=
EXTT3=
EXTT4=
EXTT5=
EXTT6=
EXTT7=
EXTT8=
EXTT9=
EXTT10=
EXTT11=
PLAYORDER=
